<svg width="80" height="83" viewBox="0 0 80 83" fill="none" xmlns="http://www.w3.org/2000/svg">
<path d="M65.657 35.8291H14.3907C12.5913 35.8291 11.1276 34.366 11.1276 32.5672V22.7947C11.1276 20.996 12.5913 19.5322 14.3907 19.5322H65.6563C67.4551 19.5322 68.9182 20.996 68.9182 22.7947V32.5678C68.9188 34.366 67.4557 35.8291 65.657 35.8291ZM14.3907 22.0322C13.977 22.0322 13.6276 22.3816 13.6276 22.7947V32.5678C13.6276 32.9878 13.9701 33.3297 14.3907 33.3297H65.6563C66.0763 33.3297 66.4182 32.9878 66.4182 32.5678V22.7947C66.4182 22.381 66.0688 22.0322 65.6563 22.0322H14.3907Z" fill="white"/>
<path d="M58.5074 69.3079H21.5374C18.0736 69.3079 15.2555 66.4904 15.2555 63.026V34.5791C15.2555 33.8891 15.8155 33.3291 16.5055 33.3291C17.1955 33.3291 17.7555 33.8891 17.7555 34.5791V63.026C17.7555 65.1116 19.4524 66.8079 21.5374 66.8079H58.5074C60.5918 66.8079 62.288 65.1116 62.288 63.026V34.5791C62.288 33.8891 62.848 33.3291 63.538 33.3291C64.228 33.3291 64.788 33.8891 64.788 34.5791V63.026C64.788 66.4904 61.9705 69.3079 58.5074 69.3079Z" fill="white"/>
<path d="M40.0231 69.3079C39.3331 69.3079 38.7731 68.7485 38.7731 68.0579V34.5791C38.7731 33.8891 39.3331 33.3291 40.0231 33.3291C40.7131 33.3291 41.2731 33.8891 41.2731 34.5791V68.0572C41.2731 68.7485 40.7137 69.3079 40.0231 69.3079Z" fill="white"/>
<path d="M24.4219 22.0278C20.5094 19.9078 19.0494 15.0003 21.1675 11.0872C23.2844 7.17592 28.1912 5.7153 32.1056 7.83155C38.0687 11.0615 41.2887 20.0728 41.4225 20.4547L39.0644 21.284C39.0344 21.199 36.0262 12.7984 30.9162 10.0303C28.2131 8.56905 24.8269 9.5778 23.3662 12.2772C21.9044 14.979 22.9119 18.3665 25.6137 19.8297L24.4219 22.0278Z" fill="white"/>
<path d="M55.6218 22.0277L54.4318 19.829C55.7412 19.1196 56.6956 17.944 57.1206 16.5184C57.545 15.0921 57.3881 13.5859 56.6787 12.2777C55.9712 10.9684 54.7962 10.0146 53.3706 9.59023C51.9443 9.16585 50.4393 9.3221 49.1306 10.0302C44.0206 12.7977 41.0125 21.1984 40.9825 21.2834L38.6243 20.454C38.7581 20.0721 41.9775 11.0609 47.9406 7.83148C49.8356 6.80523 52.0187 6.57898 54.0837 7.19398C56.1506 7.80835 57.8525 9.19148 58.8781 11.0871C59.905 12.9821 60.1318 15.164 59.5168 17.2309C58.9012 19.2971 57.5181 21.0002 55.6218 22.0277Z" fill="white"/>
<path d="M63.538 52.5688H16.5055C15.8155 52.5688 15.2555 52.0088 15.2555 51.3188C15.2555 50.6288 15.8155 50.0688 16.5055 50.0688H63.538C64.228 50.0688 64.788 50.6288 64.788 51.3188C64.788 52.0088 64.2287 52.5688 63.538 52.5688Z" fill="white"/>
</svg>
